<?xml version="1.0" standalone="no"?>
<!DOCTYPE svg PUBLIC "-//W3C//DTD SVG 20010904//EN"
 "http://www.w3.org/TR/2001/REC-SVG-20010904/DTD/svg10.dtd">
<svg version="1.0" xmlns="http://www.w3.org/2000/svg"
 width="512.000000pt" height="512.000000pt" viewBox="0 0 512.000000 512.000000"
 preserveAspectRatio="xMidYMid meet">

<g transform="translate(0.000000,512.000000) scale(0.100000,-0.100000)"
fill="#000000" stroke="none">
<path d="M2080 5104 c-221 -47 -405 -234 -456 -461 -35 -156 0 -330 92 -466
104 -152 252 -237 457 -262 l47 -6 0 -90 0 -89 -278 0 c-325 0 -358 -6 -426
-73 -23 -23 -48 -57 -55 -74 -12 -30 -17 -33 -57 -33 -107 0 -230 -84 -284
-195 -20 -41 -25 -65 -25 -135 0 -47 3 -94 7 -105 6 -16 -32 -68 -200 -268
l-207 -249 -58 -3 c-110 -7 -202 -78 -232 -179 -24 -81 -16 -143 30 -210 l24
-36 -24 -36 c-39 -57 -47 -121 -43 -332 4 -243 -4 -232 168 -232 139 0 164 11
164 74 0 57 -29 79 -110 84 l-66 4 4 148 c3 139 4 150 26 173 13 14 36 27 50
30 53 10 112 -38 112 -91 0 -25 28 -62 56 -72 28 -11 71 2 90 28 27 35 8 148
-32 193 -17 18 -16 22 14 80 43 84 44 152 2 235 -23 47 -27 61 -17 73 42 54
350 421 352 421 2 0 21 -11 41 -25 39 -26 122 -55 159 -55 21 0 22 -5 28 -119
4 -74 12 -134 22 -158 19 -45 87 -117 127 -134 27 -11 28 -14 28 -83 0 -129
46 -212 142 -260 47 -24 63 -26 170 -26 l118 0 0 -180 0 -180 -180 0 c-208 0
-258 -8 -321 -55 -62 -45 -96 -115 -105 -216 l-7 -77 -151 -4 c-128 -4 -163
-9 -231 -32 -288 -95 -475 -353 -475 -656 0 -181 58 -332 178 -461 106 -114
226 -184 371 -215 98 -20 2784 -20 2882 0 145 31 265 101 371 215 120 129 178
280 178 461 0 251 -127 471 -347 601 -98 59 -193 81 -359 87 l-151 4 -7 77
c-9 101 -43 171 -105 216 -63 47 -113 55 -321 55 l-180 0 0 180 0 180 118 0
c107 0 123 2 170 26 96 48 142 131 142 260 0 69 1 72 28 83 40 17 108 89 127
134 10 24 18 84 22 158 6 114 7 119 28 119 37 0 120 29 159 55 20 14 39 25 41
25 2 0 310 -367 352 -421 10 -12 6 -26 -18 -74 -27 -53 -30 -67 -26 -126 3
-48 12 -80 33 -117 27 -49 28 -51 10 -71 -40 -45 -59 -157 -32 -193 19 -26 62
-39 90 -28 28 10 56 47 56 72 0 53 59 101 112 91 14 -3 37 -16 50 -30 22 -23
23 -34 26 -173 l4 -148 -66 -4 c-81 -5 -110 -27 -110 -84 0 -63 25 -74 164
-74 172 0 164 -11 168 232 4 211 -4 275 -43 332 l-24 36 24 36 c46 67 54 129
30 210 -30 101 -122 172 -232 179 l-58 3 -207 249 c-168 200 -206 252 -200
268 4 11 7 58 7 105 0 70 -5 94 -25 135 -54 111 -177 195 -284 195 -40 0 -45
3 -57 33 -7 17 -32 51 -55 74 -68 67 -101 73 -426 73 l-278 0 0 89 0 90 48 6
c145 18 266 68 358 149 159 140 236 373 190 579 -51 230 -236 415 -461 462
-98 21 -859 20 -955 -1z m885 -154 c309 -45 477 -388 321 -655 -42 -71 -114
-135 -196 -174 l-75 -36 -455 0 -455 0 -75 36 c-225 107 -316 360 -211 585 59
125 190 223 327 243 84 12 735 13 819 1z m516 -1403 c38 -29 39 -46 39 -472
l0 -417 -29 -29 -29 -29 -902 0 -902 0 -29 29 -29 29 0 417 c0 426 1 443 39
472 23 18 1819 18 1842 0z m-2051 -332 c0 -169 -1 -175 -20 -175 -32 0 -96 37
-118 67 -70 100 -30 228 85 268 21 8 41 14 46 15 4 0 7 -79 7 -175z m2335 152
c127 -62 130 -243 5 -307 -22 -11 -48 -20 -60 -20 -19 0 -20 6 -20 175 l0 175
28 -6 c15 -4 36 -11 47 -17z m-3058 -959 c29 -33 35 -57 22 -95 -30 -93 -169
-70 -169 29 0 53 35 88 88 88 27 0 44 -7 59 -22z m2633 -41 c0 -55 -3 -67 -26
-88 l-26 -24 -728 0 -728 0 -26 24 c-23 21 -26 33 -26 88 l0 63 780 0 780 0 0
-63z m1195 38 c71 -70 -15 -187 -103 -141 -33 17 -57 70 -46 102 24 66 102 87
149 39z m-1625 -630 c0 -154 10 -186 61 -204 20 -7 121 -11 263 -11 166 -1
235 -4 247 -13 27 -21 39 -54 39 -111 l0 -56 -960 0 -960 0 0 56 c0 57 12 90
39 111 12 9 137 12 509 13 537 0 552 1 572 55 16 41 12 64 -15 90 l-24 25
-236 0 -235 0 0 90 0 90 350 0 350 0 0 -135z m-1532 -859 c35 -18 85 -72 105
-112 16 -30 15 -32 -9 -42 -25 -12 -44 -48 -44 -84 0 -12 -9 -41 -21 -65 -56
-116 -224 -125 -299 -16 -19 28 -25 49 -25 93 0 94 60 158 165 175 30 5 53 16
70 36 30 34 25 32 58 15z m870 0 c55 -29 142 -146 109 -146 -25 0 -50 -39 -58
-91 -15 -97 -83 -159 -174 -159 -128 0 -211 130 -156 244 26 54 69 83 149 101
40 9 63 21 76 39 23 30 20 30 54 12z m870 0 c55 -29 142 -146 109 -146 -25 0
-50 -39 -58 -91 -15 -97 -83 -159 -174 -159 -128 0 -211 130 -156 244 26 54
69 83 149 101 40 9 63 21 76 39 23 30 20 30 54 12z m870 0 c55 -29 142 -146
109 -146 -25 0 -50 -39 -58 -91 -5 -28 -18 -67 -31 -85 -73 -106 -242 -96
-297 19 -27 55 -27 99 0 153 24 52 68 81 147 99 40 9 63 21 76 39 23 30 20 30
54 12z"/>
<path d="M2105 4747 c-213 -104 -185 -414 43 -478 128 -36 269 45 308 177 27
94 4 183 -68 253 -49 49 -85 64 -163 68 -59 3 -78 0 -120 -20z m172 -169 c16
-15 23 -33 23 -60 0 -53 -35 -88 -88 -88 -67 0 -107 59 -82 121 25 59 98 73
147 27z"/>
<path d="M2817 4755 c-82 -29 -151 -117 -163 -208 -14 -97 49 -212 139 -258
167 -86 367 38 367 225 0 145 -109 256 -250 255 -30 0 -72 -6 -93 -14z m132
-160 c83 -43 53 -165 -41 -165 -101 0 -123 138 -28 173 25 9 40 8 69 -8z"/>
<path d="M1812 3360 c-12 -11 -24 -31 -28 -44 -7 -28 18 -81 41 -90 22 -8 838
-8 860 0 23 9 48 62 41 90 -4 13 -16 33 -28 44 -21 19 -34 20 -443 20 -409 0
-422 -1 -443 -20z"/>
<path d="M2943 3358 c-28 -32 -34 -54 -22 -85 18 -49 32 -52 204 -52 168 0
180 2 204 47 9 17 10 31 2 54 -19 54 -31 57 -207 58 -154 0 -161 -1 -181 -22z"/>
</g>
</svg>
